<svg width="32" height="32" viewBox="0 0 32 32" fill="none" xmlns="http://www.w3.org/2000/svg">
<path d="M15.984 0C7.152 0 0 7.168 0 16C0 24.832 7.152 32 15.984 32C24.832 32 32 24.832 32 16C32 7.168 24.832 0 15.984 0ZM10.4 9.6C11.728 9.6 12.8 10.672 12.8 12C12.8 13.328 11.728 14.4 10.4 14.4C9.072 14.4 8 13.328 8 12C8 10.672 9.072 9.6 10.4 9.6ZM23.536 20.352C22.08 23.472 19.264 25.6 16 25.6C12.736 25.6 9.92 23.472 8.464 20.352C8.208 19.824 8.592 19.2 9.184 19.2H22.816C23.408 19.2 23.792 19.824 23.536 20.352ZM21.6 14.4C20.272 14.4 19.2 13.328 19.2 12C19.2 10.672 20.272 9.6 21.6 9.6C22.928 9.6 24 10.672 24 12C24 13.328 22.928 14.4 21.6 14.4Z" fill="#5F1E7E"/>
</svg>
